PathFileType	4	(x/y/z)	S10_PSF_T09
DataRate	CameraRate	NumFrames	NumMarkers	Units	OrigDataRate	OrigDataStartFrame	OrigNumFrames
240	240	6	51	mm	240	321	427
Frame#	Time	Sternum			R.Acromium			L.Acromium			Top.Head			R.ASIS			L.ASIS			R.PSIS			L.PSIS			R.Great.Tro			L.Great.Tro			R.Iliac.Crest			L.Iliac.Crest			V.Sacral			R.Thigh.Upper.Post			R.Thigh.Lower.Ant			R.Thigh.Lower.Post			R.Thigh.Upper.Ant			R.Knee.Lat			R.Knee.Med			R.Shank.Upper.Post			R.Shank.Lower.Ant			R.Shank.Lower.Post			R.Shank.Upper.Ant			R.Ankle.Lat			R.Ankle.Med			R.Heel.Upper			R.Heel.Med			R.Heel.Lat			R.Toe.Lat			R.Toe.Med			R.Toe.Tip			L.Thigh.Upper.Post			L.Thigh.Lower.Ant			L.Thigh.Lower.Post			L.Thigh.Upper.Ant			L.Knee.Lat			L.Knee.Med			L.Shank.Upper.Post			L.Shank.Lower.Ant			L.Shank.Lower.Post			L.Shank.Upper.Ant			L.Ankle.Lat			L.Ankle.Med			L.Heel.Upper			L.Heel.Med			L.Heel.Lat			L.Toe.Lat			L.Toe.Med			L.Toe.Tip			Cervical.Spine			Back			
		X1	Y1	Z1	X2	Y2	Z2	X3	Y3	Z3	X4	Y4	Z4	X5	Y5	Z5	X6	Y6	Z6	X7	Y7	Z7	X8	Y8	Z8	X9	Y9	Z9	X10	Y10	Z10	X11	Y11	Z11	X12	Y12	Z12	X13	Y13	Z13	X14	Y14	Z14	X15	Y15	Z15	X16	Y16	Z16	X17	Y17	Z17	X18	Y18	Z18	X19	Y19	Z19	X20	Y20	Z20	X21	Y21	Z21	X22	Y22	Z22	X23	Y23	Z23	X24	Y24	Z24	X25	Y25	Z25	X26	Y26	Z26	X27	Y27	Z27	X28	Y28	Z28	X29	Y29	Z29	X30	Y30	Z30	X31	Y31	Z31	X32	Y32	Z32	X33	Y33	Z33	X34	Y34	Z34	X35	Y35	Z35	X36	Y36	Z36	X37	Y37	Z37	X38	Y38	Z38	X39	Y39	Z39	X40	Y40	Z40	X41	Y41	Z41	X42	Y42	Z42	X43	Y43	Z43	X44	Y44	Z44	X45	Y45	Z45	X46	Y46	Z46	X47	Y47	Z47	X48	Y48	Z48	X49	Y49	Z49	X50	Y50	Z50	X51	Y51	Z51	

321	1.3333	291.66	1276.9	329.11	165.8	1435.3	475.26	168.31	1449.2	169.05	119.49	1749.2	335.49	233.02	1002.4	435.04	241.49	1032.4	206.67	34.973	1023.1	339.56	42.62	1036.6	259.25	159.02	918.56	498.21	185.2	972.48	142.86	135.15	1079.2	476.96	175.54	1105.4	181.11	18.837	994.52	298.21	225.65	719.01	511.08	303.82	657.68	486.58	243.84	631.13	508.45	286.96	747.19	483.84	262.6	508.07	478.91	289.09	503.37	347.33	68.269	407.99	448.89	62.2	316.23	450.59	13.007	358.74	441.94	123.41	362.9	460.6	-52.58	270.7	426.74	-27.17	261.68	348.26	-104.41	293.26	363.1	-121.42	272.48	333.67	-131.17	283.71	394.32	-84.3	127.19	461.66	-46.603	97.387	363.4	-13.753	57.207	414.61	182.51	685.77	156.02	264.97	617.26	187.97	192.5	593.88	182.63	259.19	703.56	163.22	235.74	513.11	201.43	235.44	518.31	329.68	162.71	301.24	204.25	224.16	211.44	226.06	161.62	224.47	216.24	225.71	287.33	213.23	180.7	106.1	231.26	194.89	117.08	319.36	111.77	77.191	279.49	124.04	44.701	311.96	116.61	47.711	247.71	292.31	42.715	203.98	324.08	45.504	311.18	376.68	58.102	261.29	87.948	1496.4	330.24	6.5544	1287.5	319.35
322	1.3375	296.51	1277.9	329.51	169.89	1436.1	475.32	174.02	1450.3	169.13	124.92	1750.2	335.65	237.79	1003.6	434.81	246.49	1033	206.41	39.875	1024.2	339.29	47.616	1037.5	258.94	164.04	920.05	498.23	189.89	972.86	142.7	139.62	1080.5	476.64	180.63	1106.1	180.79	23.731	995.58	297.98	233.13	721.09	511.38	311.89	660.68	486.54	252.42	633.46	508.95	293.84	749.93	483.63	272.33	510.35	479.27	299.08	506.01	347.67	78.918	408	448.79	74.015	316.19	450.68	24.318	358.04	441.84	134.61	363.65	460.68	-40.212	269.18	426.51	-14.643	260.27	348.32	-92.907	290.44	362.72	-109.36	269.06	333.37	-119.39	280.37	393.95	-68.754	125.47	462.24	-30.376	96.028	364.12	3.4365	56.935	415.6	184.82	686.34	156.21	266.81	617.1	187.82	194.14	594.36	182.79	261.67	703.43	163.1	236.77	513.16	201.21	237.07	518.27	329.42	163.11	301.44	204.15	224.34	211.5	225.95	161.85	224.67	216.19	226.09	287.37	213.08	180.74	106.13	231.24	194.9	117.18	319.34	111.73	77.232	279.48	123.99	44.757	311.93	116.62	47.743	247.71	292.31	42.708	203.97	324.1	45.482	311.16	376.7	58.06	261.29	92.838	1497.2	329.9	11.543	1288.4	318.43
323	1.3417	301.35	1279	329.89	173.99	1436.8	475.37	179.71	1451.4	169.21	130.35	1751.2	335.82	242.57	1004.8	434.57	251.48	1033.6	206.15	44.773	1025.2	339.04	52.602	1038.4	258.66	169.09	921.53	498.28	194.57	973.22	142.54	144.09	1081.8	476.33	185.71	1106.8	180.46	28.622	996.59	297.78	240.58	723.18	511.66	319.91	663.67	486.46	260.97	635.79	509.42	300.67	752.64	483.39	281.94	512.62	479.59	308.94	508.67	348	89.534	407.85	448.73	85.87	316	450.78	35.638	357.14	441.77	145.8	364.28	460.76	-27.767	267.43	426.29	-2.0311	258.68	348.4	-81.292	287.36	362.36	-97.159	265.4	333.1	-107.49	276.75	393.6	-53.063	123.59	462.83	-13.988	94.554	364.86	20.777	56.578	416.59	187.11	686.92	156.39	268.63	616.94	187.66	195.76	594.85	182.95	264.13	703.29	162.97	237.76	513.21	200.97	238.69	518.23	329.15	163.49	301.64	204.05	224.52	211.57	225.83	162.06	224.88	216.13	226.45	287.42	212.93	180.78	106.16	231.21	194.89	117.28	319.32	111.7	77.274	279.47	123.92	44.814	311.9	116.63	47.776	247.72	292.32	42.702	203.96	324.11	45.461	311.12	376.72	58.017	261.29	97.723	1498.1	329.57	16.532	1289.4	317.53
324	1.3458	306.18	1280	330.24	178.08	1437.6	475.41	185.38	1452.6	169.3	135.78	1752.2	336.01	247.35	1006	434.31	256.45	1034.2	205.88	49.667	1026.3	338.83	57.579	1039.2	258.41	174.17	922.98	498.34	199.23	973.55	142.38	148.58	1083.1	476.03	190.77	1107.4	180.12	33.51	997.56	297.62	247.99	725.25	511.93	327.86	666.63	486.33	269.47	638.12	509.88	307.46	755.32	483.14	291.44	514.87	479.88	318.67	511.34	348.3	100.12	407.53	448.7	97.765	315.66	450.89	46.97	356.06	441.74	156.98	364.8	460.85	-15.243	265.46	426.09	10.668	256.92	348.47	-69.564	284.01	362.03	-84.816	261.49	332.87	-95.467	272.88	393.29	-37.226	121.56	463.42	2.5594	92.976	365.6	38.264	56.15	417.58	189.4	687.5	156.57	270.43	616.78	187.49	197.34	595.35	183.12	266.57	703.15	162.85	238.72	513.27	200.72	240.28	518.18	328.87	163.86	301.84	203.95	224.68	211.63	225.7	162.27	225.08	216.08	226.79	287.47	212.77	180.82	106.19	231.18	194.85	117.38	319.3	111.66	77.319	279.46	123.85	44.872	311.88	116.63	47.81	247.73	292.32	42.696	203.95	324.13	45.441	311.09	376.73	57.973	261.29	102.6	1498.9	329.24	21.52	1290.2	316.64
325	1.35	311	1281	330.56	182.19	1438.3	475.45	191.03	1453.6	169.39	141.2	1753.1	336.21	252.14	1007.1	434.03	261.41	1034.7	205.6	54.556	1027.2	338.64	62.546	1040	258.18	179.28	924.4	498.42	203.88	973.85	142.23	153.08	1084.3	475.73	195.81	1107.9	179.77	38.397	998.48	297.47	255.37	727.3	512.19	335.76	669.56	486.16	277.91	640.44	510.33	314.21	757.97	482.86	300.83	517.09	480.14	328.26	514.01	348.6	110.68	407.06	448.71	109.7	315.18	451	58.317	354.8	441.73	168.16	365.2	460.93	-2.6349	263.28	425.9	23.457	254.99	348.56	-57.72	280.42	361.72	-72.331	257.34	332.66	-83.316	268.74	393.02	-21.236	119.4	464.03	19.265	91.307	366.36	55.894	55.665	418.58	191.68	688.08	156.75	272.21	616.62	187.31	198.91	595.85	183.27	268.99	703	162.73	239.65	513.32	200.45	241.83	518.13	328.57	164.22	302.05	203.85	224.83	211.7	225.56	162.47	225.28	216.04	227.12	287.53	212.6	180.86	106.22	231.16	194.8	117.48	319.26	111.63	77.366	279.46	123.77	44.93	311.86	116.64	47.846	247.73	292.33	42.691	203.95	324.14	45.421	311.06	376.75	57.927	261.29	107.48	1499.7	328.92	26.508	1291.1	315.77
326	1.3542	315.81	1281.9	330.85	186.31	1439	475.47	196.67	1454.7	169.48	146.61	1753.9	336.42	256.94	1008.2	433.76	266.35	1035.2	205.32	59.441	1028.2	338.48	67.502	1040.7	257.97	184.42	925.78	498.51	208.52	974.12	142.08	157.6	1085.5	475.44	200.83	1108.4	179.41	43.283	999.34	297.36	262.7	729.33	512.45	343.6	672.45	485.97	286.3	642.75	510.76	320.92	760.58	482.57	310.09	519.29	480.36	337.68	516.66	348.87	121.21	406.42	448.75	121.68	314.56	451.11	69.681	353.35	441.76	179.32	365.48	461.01	10.06	260.9	425.74	36.337	252.91	348.66	-45.757	276.57	361.45	-59.702	252.96	332.49	-71.03	264.35	392.78	-5.0892	117.11	464.66	36.128	89.559	367.13	73.666	55.14	419.58	193.96	688.66	156.92	273.98	616.46	187.12	200.46	596.36	183.42	271.4	702.86	162.61	240.56	513.38	200.16	243.34	518.06	328.25	164.56	302.25	203.74	224.97	211.77	225.41	162.67	225.47	215.99	227.42	287.59	212.41	180.9	106.25	231.13	194.73	117.58	319.22	111.6	77.417	279.46	123.69	44.99	311.84	116.66	47.884	247.74	292.33	42.685	203.94	324.15	45.401	311.02	376.77	57.878	261.29	112.36	1500.4	328.61	31.497	1291.8	314.91
